<?xml version="1.0" encoding="UTF-8" standalone="no"?>
<!-- Created with Inkscape (http://www.inkscape.org/) -->

<svg
   width="19.484985mm"
   height="19.48793mm"
   viewBox="0 0 19.484985 19.48793"
   version="1.1"
   id="svg5"
   xml:space="preserve"
   inkscape:version="1.2.2 (b0a8486541, 2022-12-01)"
   sodipodi:docname="iconsv2.svg"
   xmlns:inkscape="http://www.inkscape.org/namespaces/inkscape"
   xmlns:sodipodi="http://sodipodi.sourceforge.net/DTD/sodipodi-0.dtd"
   xmlns="http://www.w3.org/2000/svg"
   xmlns:svg="http://www.w3.org/2000/svg"><sodipodi:namedview
     id="namedview7"
     pagecolor="#ffffff"
     bordercolor="#111111"
     borderopacity="1"
     inkscape:showpageshadow="0"
     inkscape:pageopacity="0"
     inkscape:pagecheckerboard="1"
     inkscape:deskcolor="#d1d1d1"
     inkscape:document-units="mm"
     showgrid="false"
     inkscape:zoom="3.7522729"
     inkscape:cx="2177.6135"
     inkscape:cy="767.66805"
     inkscape:window-width="3440"
     inkscape:window-height="1440"
     inkscape:window-x="0"
     inkscape:window-y="0"
     inkscape:window-maximized="1"
     inkscape:current-layer="layer1" /><defs
     id="defs2" /><g
     inkscape:label="Layer 1"
     inkscape:groupmode="layer"
     id="layer1"
     transform="translate(-613.67043,-216.76124)"><g
       style="fill:#ffffff;stroke-width:10.8614"
       id="g20728"
       transform="matrix(1.2179952,0,0,1.2179952,613.66774,216.76185)"><g
         fill="#000000"
         id="g20717"
         style="fill:#ffffff;stroke-width:31.9792"><path
           d="M 1.5,8 A 6.5,6.5 0 0 1 8.244,1.504 0.75000433,0.75000433 0 1 0 8.299,0.005 8,8 0 1 0 15.335,11.198 0.75010416,0.75010416 0 0 0 13.96,10.598 6.722,6.722 0 0 1 13.74,11.051 6.5,6.5 0 0 1 1.5,8 Z m 9.226,-6.762 a 0.75,0.75 0 0 1 1.013,-0.312 c 0.177,0.094 0.35,0.194 0.518,0.3 a 0.7502168,0.7502168 0 0 1 -0.799,1.27 6.512,6.512 0 0 0 -0.42,-0.244 0.75,0.75 0 0 1 -0.312,-1.014 z m 3.014,2.27 a 0.75,0.75 0 0 1 1.034,0.235 c 0.106,0.168 0.206,0.34 0.3,0.518 A 0.75017998,0.75017998 0 1 1 13.748,4.963 6.452,6.452 0 0 0 13.505,4.542 0.75,0.75 0 0 1 13.74,3.508 Z m 1.477,3.471 a 0.75,0.75 0 0 1 0.777,0.722 8.034,8.034 0 0 1 0.002,0.552 0.75036808,0.75036808 0 0 1 -1.5,-0.047 6.713,6.713 0 0 0 0,-0.45 0.75,0.75 0 0 1 0.721,-0.777 z"
           id="path20713"
           style="fill:#ffffff;stroke-width:10.8614" /><path
           d="M 7.75,3 A 0.75,0.75 0 0 1 8.5,3.75 v 3.786 l 2.085,1.043 a 0.75,0.75 0 1 1 -0.67,1.342 l -2.5,-1.25 A 0.75,0.75 0 0 1 7,8 V 3.75 A 0.75,0.75 0 0 1 7.75,3 Z"
           id="path20715"
           style="fill:#ffffff;stroke-width:10.8614" /></g></g></g><style
     type="text/css"
     id="style2528">
	.linesandangles_een{fill:#111918;}
</style></svg>
