<?xml version="1.0" encoding="UTF-8" standalone="no"?>
<!-- Created with Inkscape (http://www.inkscape.org/) -->

<svg
   width="19.531311mm"
   height="18.385498mm"
   viewBox="0 0 19.531311 18.385498"
   version="1.1"
   id="svg5"
   xml:space="preserve"
   inkscape:version="1.2.2 (b0a8486541, 2022-12-01)"
   sodipodi:docname="iconsv2.svg"
   xmlns:inkscape="http://www.inkscape.org/namespaces/inkscape"
   xmlns:sodipodi="http://sodipodi.sourceforge.net/DTD/sodipodi-0.dtd"
   xmlns="http://www.w3.org/2000/svg"
   xmlns:svg="http://www.w3.org/2000/svg"><sodipodi:namedview
     id="namedview7"
     pagecolor="#ffffff"
     bordercolor="#111111"
     borderopacity="1"
     inkscape:showpageshadow="0"
     inkscape:pageopacity="0"
     inkscape:pagecheckerboard="1"
     inkscape:deskcolor="#d1d1d1"
     inkscape:document-units="mm"
     showgrid="false"
     inkscape:zoom="1.3266288"
     inkscape:cx="2707.615"
     inkscape:cy="1072.6437"
     inkscape:window-width="1699"
     inkscape:window-height="1335"
     inkscape:window-x="12"
     inkscape:window-y="64"
     inkscape:window-maximized="1"
     inkscape:current-layer="layer1" /><defs
     id="defs2" /><g
     inkscape:label="Layer 1"
     inkscape:groupmode="layer"
     id="layer1"
     transform="translate(-698.48171,-315.16801)"><g
       id="g3874"
       transform="matrix(0.0355484,-0.03222435,0.03141129,0.03646855,689.60392,321.56225)"
       style="fill:#ffffff;stroke-width:6.50216"
       inkscape:export-filename="auv.svg"
       inkscape:export-xdpi="300"
       inkscape:export-ydpi="300"><path
         id="path751"
         style="fill:#ffffff;stroke-width:6.50216"
         d="m 315.73132,192.00343 c -4.71875,0 -8.52629,3.8163 -8.52629,8.5263 v 17.06518 h -34.14297 c -2.68,0 -5.21308,1.26304 -6.82608,3.41304 l -23.03485,30.72993 h -81.06908 c -0.777,0 -1.55015,0.10086 -2.29215,0.31486 l -65.968595,18.32461 v -27.17836 c 0,-4.70975 -3.819991,-8.52629 -8.538891,-8.52629 H 51.202041 c -4.172875,0 -7.729948,3.01174 -8.412948,7.11574 l -7.480974,44.84806 -18.23645,5.07548 v -5.84373 c 0,-4.70975 -3.820015,-8.53889 -8.5388907,-8.53889 -4.7188825,0 -8.53889038,3.82814 -8.53889038,8.53889 v 34.13038 c 0,4.70975 3.82000788,8.53889 8.53889038,8.53889 4.7188757,0 8.5388907,-3.82914 8.5388907,-8.53889 v -5.84373 l 18.23645,5.06288 7.480974,44.84807 c 0.683,4.113 4.240073,7.14093 8.412948,7.14093 h 34.130373 c 4.7189,0 8.526296,-3.82889 8.526296,-8.53889 v -27.17836 l 65.98119,18.32461 c 0.742,0.213 1.51515,0.31486 2.29215,0.31486 h 307.19854 c 23.5255,0 42.66927,-22.95931 42.66927,-51.19556 10e-4,-28.23725 -19.14277,-51.19556 -42.66927,-51.19556 H 396.8004 l -23.03485,-30.72993 c -1.613,-2.15 -4.15867,-3.41304 -6.83867,-3.41304 h -8.19884 c -0.0227,0.0384 -0.0699,0.0689 -0.15114,0.0756 -0.11673,0.01 -0.23565,0.0285 -0.35263,0.0252 -0.0317,-8.5e-4 -0.0565,-0.0105 -0.0882,-0.0126 -0.0512,0.006 -0.11255,-0.007 -0.16373,0 v 0.0126 c -0.0122,0.007 -0.0239,0.008 -0.0378,0.0126 -0.0658,0.0106 -0.065,0.014 -0.12594,0.0126 -0.0171,-3.9e-4 -0.0335,-9.3e-4 -0.0504,0 -0.0171,8.5e-4 -0.0224,-0.003 -0.0378,0 -0.0512,0.01 -0.0545,0.0178 -0.10076,0.0252 -0.0585,0.0101 -0.11783,-0.0178 -0.17632,-0.0126 -0.0439,0.004 -0.0947,0.0176 -0.13853,0.0252 -0.13697,0.0255 -0.26654,-0.008 -0.40302,0 -0.0219,0.001 -0.0526,0.009 -0.0756,0.0126 -0.12089,0.0338 -0.24338,0.0175 -0.36524,0.0126 -0.13038,8.8e-4 -0.25881,5.6e-4 -0.39042,0 -0.0341,-0.007 -0.0792,0.007 -0.11335,0 -0.0536,-0.0113 -0.0695,-0.0106 -0.11334,-0.0252 -0.13039,0.004 -0.25882,0.0126 -0.39043,0.0126 -0.31292,-0.002 -0.61904,-0.0131 -0.93197,-0.0126 -0.0366,0.004 -0.0744,0.009 -0.11335,0.0126 -0.0536,0.008 -0.1101,0.0192 -0.16372,0.0252 -0.0804,0.009 -0.1613,0.0181 -0.23929,0.0252 -0.0853,0.009 -0.23484,0.0215 -0.32745,0.0252 -0.0414,0.002 -0.087,-1.2e-4 -0.12594,0 -0.0341,-0.002 -0.0666,-5.1e-4 -0.10076,0 -0.0561,8.5e-4 -0.11011,0.008 -0.16372,0.0126 -0.1338,0.0108 -0.26898,0.0144 -0.40302,0.0126 -0.0585,-8.6e-4 -0.10523,6.8e-4 -0.16372,0 -0.0609,-6.8e-4 -0.13043,-0.0103 -0.18892,-0.0126 -0.22446,-0.008 -0.14751,-0.0126 -0.34004,-0.0252 -0.10724,-0.007 -0.1219,-4.8e-4 -0.2267,0 -0.2481,0.0106 -0.49471,0.0137 -0.74306,0.0126 -0.21763,-9.3e-4 -0.43799,2e-5 -0.6549,0 -0.2403,-1.7e-4 -0.48919,-3e-5 -0.73046,0 -0.14136,-0.007 -0.27426,0.006 -0.41561,0 -0.14867,-0.006 -0.087,-0.0221 -0.20151,-0.0378 -0.0195,-0.003 -0.0427,0.002 -0.063,0 -0.0317,-0.004 -0.0691,-0.008 -0.10076,-0.0126 -0.14964,-0.021 -0.28969,-0.002 -0.44079,0 -0.0804,1.2e-4 -0.15887,4.9e-4 -0.23929,0 -0.0195,-1.2e-4 -0.0445,0.002 -0.063,0 -0.0512,-0.005 -0.0999,-0.0288 -0.15113,-0.0378 -0.16377,-0.008 -0.32788,0.0126 -0.49117,0.0126 -0.14014,-0.002 -0.27426,-4.8e-4 -0.41561,0 -0.1221,-0.004 -0.24338,0.006 -0.36523,0 -0.0241,-0.002 -0.25799,-0.0349 -0.28967,-0.0378 -0.16694,-0.0119 -0.33561,0.0126 -0.50377,0.0126 -0.12283,-0.006 -0.24338,0.007 -0.36523,0 -0.13648,-0.007 -0.27913,-0.0338 -0.41561,-0.0504 -0.17523,-0.0274 -0.35349,-0.002 -0.52896,0 -0.18644,-5.1e-4 -0.36893,-0.002 -0.55415,0 -0.087,0.006 -0.17674,-0.007 -0.26448,0 -0.0146,0.001 -0.0726,0.009 -0.0882,0.0126 -0.0171,0.004 -0.0331,0.01 -0.0504,0.0126 -0.13697,6.3e-4 -0.26654,-0.002 -0.40302,0 -0.12234,0.002 -0.25597,2.2e-4 -0.37783,0 h -0.35263 -0.2267 c -0.0634,-0.006 -0.12555,0.008 -0.18891,0 -0.0512,-0.007 -0.0999,-0.0293 -0.15113,-0.0378 h -0.0126 c -0.0995,0.016 -0.15691,-0.0233 -0.17632,-0.0756 h -0.54155 c -0.0265,0 -0.0421,-0.008 -0.063,-0.0126 h -0.0126 -17.05259 v -17.06518 c 0,-4.71 -3.81989,-8.5263 -8.53889,-8.5263 z m 32.5435,8.90412 c -0.0368,-0.002 -0.0764,-8e-4 -0.063,0.0126 0.01,0.009 0.0245,0.0111 0.0378,0.0126 0.0281,-0.003 0.0601,-0.009 0.0882,-0.0126 0.0195,-0.003 -0.0261,-0.0108 -0.063,-0.0126 z m -0.75565,0.0252 c -0.0357,0.0862 -0.066,0.17965 -0.10076,0.26448 0.0418,-0.0367 0.0883,-0.0732 0.13854,-0.11335 -0.007,-0.0387 -0.019,-0.0739 -0.0252,-0.11334 -0.003,-0.0132 -0.009,-0.0246 -0.0126,-0.0378 z m -0.90679,0.41561 -0.0126,0.0126 c 0.0145,6.3e-4 0.0242,-2.5e-4 0.0378,0 v -0.0126 h -0.0126 z m 1.13348,1.33499 c -0.0218,0.006 -0.041,0.0196 -0.063,0.0252 0.0168,0.008 0.0368,0.0206 0.0504,0.0378 0.003,-0.0219 0.0104,-0.0412 0.0126,-0.063 z m 2.35513,0.57934 c -3.1e-4,0.0256 2.3e-4,0.05 0,0.0756 0.0168,1.5e-4 0.0336,-1.6e-4 0.0504,0 -0.0176,-0.0231 -0.0328,-0.0523 -0.0504,-0.0756 z m 6.27192,14.26926 c -0.0206,0.004 -0.0425,0.008 -0.063,0.0126 0.0547,-6e-5 0.10927,9e-5 0.16373,0 0.10723,0.005 0.21006,0.0191 0.31485,-0.0126 h -0.0504 -0.21411 -0.11334 z" /><rect
         style="fill:#ffffff;fill-opacity:1;fill-rule:evenodd;stroke:#ffffff;stroke-width:7.31355;stroke-linecap:round;stroke-linejoin:bevel;stroke-opacity:1"
         id="rect2395"
         width="19.599724"
         height="10.633952"
         x="340.8447"
         y="223.21992"
         ry="0" /></g></g><style
     type="text/css"
     id="style2528">
	.linesandangles_een{fill:#111918;}
</style></svg>
