<?xml version="1.0" encoding="UTF-8" standalone="no"?>
<!-- Created with Inkscape (http://www.inkscape.org/) -->

<svg
   width="19.592834mm"
   height="17.471344mm"
   viewBox="0 0 19.592834 17.471344"
   version="1.1"
   id="svg5"
   xml:space="preserve"
   inkscape:version="1.2.2 (b0a8486541, 2022-12-01)"
   sodipodi:docname="iconsv2.svg"
   xmlns:inkscape="http://www.inkscape.org/namespaces/inkscape"
   xmlns:sodipodi="http://sodipodi.sourceforge.net/DTD/sodipodi-0.dtd"
   xmlns="http://www.w3.org/2000/svg"
   xmlns:svg="http://www.w3.org/2000/svg"><sodipodi:namedview
     id="namedview7"
     pagecolor="#ffffff"
     bordercolor="#111111"
     borderopacity="1"
     inkscape:showpageshadow="0"
     inkscape:pageopacity="0"
     inkscape:pagecheckerboard="1"
     inkscape:deskcolor="#d1d1d1"
     inkscape:document-units="mm"
     showgrid="false"
     inkscape:zoom="2.6532576"
     inkscape:cx="2677.4634"
     inkscape:cy="1137.2812"
     inkscape:window-width="1699"
     inkscape:window-height="1336"
     inkscape:window-x="12"
     inkscape:window-y="64"
     inkscape:window-maximized="1"
     inkscape:current-layer="layer1" /><defs
     id="defs2" /><g
     inkscape:label="Layer 1"
     inkscape:groupmode="layer"
     id="layer1"
     transform="translate(-727.43807,-312.89439)"><g
       id="g17725-4-3"
       transform="matrix(1.0722775,-1.4565536,1.5883205,1.2563791,528.56651,290.59787)"
       inkscape:export-filename="diver.svg"
       inkscape:export-xdpi="300"
       inkscape:export-ydpi="300"
       style="stroke-width:0.475599"><path
         d="m 63.594642,94.611461 0.270817,-0.634 -1.923442,-0.826611 -1.578049,-1.67615 q -0.170403,-0.18024 -0.385945,-0.254821 -0.215533,-0.07457 -0.474676,-0.01784 l -4.483371,1.036141 -1.847025,-1.268763 -1.757954,-0.471046 -0.15562,0.580755 1.637016,0.514339 1.741053,1.475891 2.737463,0.237226 2.7992,-0.621028 1.428563,1.072524 z m -1.57019,-3.432047 q 0.298524,-0.172354 0.38895,-0.509815 0.09042,-0.337466 -0.08191,-0.635997 -0.172348,-0.298523 -0.509818,-0.38895 -0.337462,-0.09043 -0.635994,0.08193 -0.298524,0.172354 -0.388949,0.509822 -0.09042,0.337468 0.0819,0.635992 0.172357,0.29853 0.509827,0.388955 0.337461,0.09042 0.635984,-0.08194 z M 58.881555,90.7915 q 0.233503,-0.05518 0.347319,-0.260199 0.113825,-0.20502 0.05863,-0.438513 -0.06514,-0.227743 -0.260221,-0.347304 -0.195069,-0.119562 -0.428564,-0.06437 l -2.136994,0.504066 0.298559,1.114613 z"
         id="path767-9-0-7"
         style="fill:#ffffff;stroke-width:0.00546478" /></g></g><style
     type="text/css"
     id="style2528">
	.linesandangles_een{fill:#111918;}
</style></svg>
