<?xml version="1.0" encoding="UTF-8" standalone="no"?>
<!-- Created with Inkscape (http://www.inkscape.org/) -->

<svg
   width="14.719543mm"
   height="19.248337mm"
   viewBox="0 0 14.719543 19.248337"
   version="1.1"
   id="svg5"
   xml:space="preserve"
   inkscape:version="1.2.2 (b0a8486541, 2022-12-01)"
   sodipodi:docname="icons.svg"
   xmlns:inkscape="http://www.inkscape.org/namespaces/inkscape"
   xmlns:sodipodi="http://sodipodi.sourceforge.net/DTD/sodipodi-0.dtd"
   xmlns="http://www.w3.org/2000/svg"
   xmlns:svg="http://www.w3.org/2000/svg"><sodipodi:namedview
     id="namedview7"
     pagecolor="#ffffff"
     bordercolor="#111111"
     borderopacity="1"
     inkscape:showpageshadow="0"
     inkscape:pageopacity="0"
     inkscape:pagecheckerboard="1"
     inkscape:deskcolor="#d1d1d1"
     inkscape:document-units="mm"
     showgrid="false"
     inkscape:zoom="1.3266288"
     inkscape:cx="1810.6044"
     inkscape:cy="789.5954"
     inkscape:window-width="3440"
     inkscape:window-height="1440"
     inkscape:window-x="0"
     inkscape:window-y="0"
     inkscape:window-maximized="1"
     inkscape:current-layer="layer1" /><defs
     id="defs2" /><g
     inkscape:label="Layer 1"
     inkscape:groupmode="layer"
     id="layer1"
     transform="translate(-533.34791,-168.4576)"><g
       style="fill:#ffffff;fill-opacity:1;stroke-width:2.5365;stroke-dasharray:none"
       id="g2598-9-0"
       transform="matrix(0.59136547,0,0,0.59136547,519.46389,35.515581)"
       inkscape:export-filename="flags_buoys.svg"
       inkscape:export-xdpi="300"
       inkscape:export-ydpi="300"><g
         id="g4735-1-6"
         transform="translate(-72.846006,-21.797165)"
         style="fill:#ffffff;fill-opacity:1;stroke-width:2.5365;stroke-dasharray:none"><g
           id="g2582-9-4"
           transform="matrix(0.08032715,0,0,0.08032715,-59.408679,213.40952)"
           style="fill:#ffffff;fill-opacity:1;stroke-width:31.5771;stroke-dasharray:none">
	<g
   id="g2580-3-7"
   style="fill:#ffffff;fill-opacity:1;stroke-width:31.5771;stroke-dasharray:none">
		<g
   id="g16488"
   transform="matrix(1.0707477,0,0,1.0707477,1795.7151,374.48507)"
   style="stroke-width:29.4907"><g
     id="g2570-2-1"
     transform="translate(-5.7090221e-5)"
     style="fill:#ffffff;fill-opacity:1;stroke-width:29.4907;stroke-dasharray:none">
	<g
   id="g2568-7-5"
   style="fill:#ffffff;fill-opacity:1;stroke-width:29.4907;stroke-dasharray:none">
		<path
   d="m 300.121,245.469 c -0.145,-0.7 -0.356,-1.402 -0.634,-2.08 -0.278,-0.669 -0.623,-1.313 -1.024,-1.914 -0.412,-0.613 -0.868,-1.181 -1.391,-1.693 -0.512,-0.512 -1.08,-0.979 -1.692,-1.391 -0.601,-0.401 -1.247,-0.746 -1.914,-1.024 -0.668,-0.278 -1.369,-0.49 -2.081,-0.634 -1.436,-0.289 -2.916,-0.289 -4.352,0 -0.712,0.145 -1.414,0.356 -2.081,0.634 -0.679,0.278 -1.325,0.623 -1.926,1.024 -0.612,0.412 -1.18,0.879 -1.692,1.391 -0.512,0.512 -0.979,1.08 -1.38,1.693 -0.401,0.601 -0.746,1.245 -1.024,1.914 -0.278,0.678 -0.49,1.38 -0.634,2.081 -0.145,0.722 -0.223,1.458 -0.223,2.182 0,0.722 0.078,1.458 0.223,2.17 0.145,0.712 0.356,1.414 0.634,2.08 0.278,0.679 0.623,1.325 1.024,1.926 0.401,0.612 0.868,1.18 1.38,1.692 0.512,0.512 1.08,0.981 1.692,1.38 0.601,0.401 1.247,0.746 1.926,1.024 0.668,0.278 1.369,0.501 2.081,0.634 0.712,0.145 1.447,0.223 2.17,0.223 2.938,0 5.799,-1.191 7.869,-3.262 0.523,-0.512 0.979,-1.08 1.391,-1.692 0.401,-0.601 0.746,-1.247 1.024,-1.926 0.278,-0.668 0.49,-1.368 0.634,-2.08 0.145,-0.714 0.211,-1.448 0.211,-2.17 0.001,-0.724 -0.066,-1.46 -0.211,-2.182 z"
   id="path2566-0-5"
   style="fill:#ffffff;fill-opacity:1;stroke-width:29.4907;stroke-dasharray:none" />
	</g>
</g><path
     d="m 365.082,347.746 c 8.536,-16.687 13.355,-35.578 13.355,-55.573 0,-17.168 -3.558,-33.517 -9.965,-48.361 -0.167,-0.452 -0.355,-0.893 -0.577,-1.316 -17.651,-39.603 -55.724,-68.169 -100.763,-72.248 V 144.74 l 147.753,-42.215 c 4.778,-1.364 8.073,-5.731 8.073,-10.701 0,-4.97 -3.295,-9.337 -8.073,-10.702 L 259.058,36.602 c -0.071,-0.02 -0.144,-0.029 -0.215,-0.048 -0.292,-0.077 -0.588,-0.145 -0.888,-0.198 -0.135,-0.023 -0.27,-0.043 -0.405,-0.062 -0.26,-0.037 -0.523,-0.063 -0.789,-0.081 -0.156,-0.011 -0.311,-0.02 -0.466,-0.023 -0.099,-0.002 -0.195,-0.014 -0.294,-0.014 -0.161,0 -0.317,0.018 -0.476,0.023 -0.147,0.007 -0.294,0.01 -0.441,0.022 -0.301,0.024 -0.594,0.066 -0.887,0.114 -0.098,0.017 -0.196,0.026 -0.293,0.044 -0.816,0.156 -1.599,0.4 -2.342,0.722 -0.056,0.023 -0.108,0.053 -0.164,0.079 -0.308,0.14 -0.609,0.293 -0.902,0.459 -0.105,0.06 -0.206,0.125 -0.308,0.188 -0.242,0.148 -0.476,0.304 -0.705,0.47 -0.06,0.043 -0.125,0.078 -0.185,0.122 -0.051,0.039 -0.096,0.085 -0.147,0.125 -0.219,0.171 -0.429,0.352 -0.634,0.539 -0.095,0.087 -0.193,0.169 -0.284,0.258 -0.26,0.254 -0.509,0.52 -0.744,0.798 -0.021,0.024 -0.046,0.048 -0.066,0.072 -0.255,0.308 -0.491,0.633 -0.712,0.968 -0.053,0.081 -0.1,0.166 -0.151,0.249 -0.161,0.258 -0.315,0.523 -0.455,0.795 -0.053,0.105 -0.102,0.21 -0.152,0.316 -0.124,0.26 -0.238,0.526 -0.342,0.798 -0.043,0.112 -0.085,0.225 -0.124,0.338 -0.095,0.275 -0.176,0.553 -0.249,0.836 -0.03,0.115 -0.062,0.228 -0.088,0.343 -0.067,0.295 -0.116,0.595 -0.159,0.899 -0.014,0.106 -0.037,0.209 -0.048,0.317 -0.046,0.405 -0.073,0.816 -0.073,1.233 v 89.043 33.902 c -45.038,4.078 -83.112,32.644 -100.763,72.247 -0.221,0.423 -0.411,0.864 -0.577,1.317 -6.408,14.845 -9.965,31.194 -9.965,48.361 0,19.995 4.819,38.886 13.355,55.573 12.84785,20.52751 0.63032,1.19015 13.004,20.233 22.442,28.383 57.167,46.629 96.077,46.629 38.91,0 73.635,-18.246 96.077,-46.629 7.55105,-8.70354 9.05655,-11.49964 13.004,-20.233 z M 267.13,62.059 371.311,91.825 267.13,121.592 Z M 256,392.347 c -55.236,0 -100.174,-44.938 -100.174,-100.174 0,-11.705 2.025,-22.942 5.73,-33.392 H 256 c 6.147,0 11.13,-4.984 11.13,-11.13 0,-6.146 -4.983,-11.13 -11.13,-11.13 H 172.75 C 190.742,209.694 221.342,192 256,192 c 34.658,0 65.258,17.694 83.25,44.521 h -16.838 c -6.147,0 -11.13,4.984 -11.13,11.13 0,6.146 4.983,11.13 11.13,11.13 h 28.032 c 3.705,10.45 5.73,21.688 5.73,33.392 0,55.236 -44.938,100.174 -100.174,100.174 z"
     id="path2578-6-6"
     style="fill:#ffffff;fill-opacity:1;stroke-width:29.4907;stroke-dasharray:none"
     sodipodi:nodetypes="cscccccsccsssssscsscscsssssssssscssssssscsccccsccsccccccsscssscscssscss" /></g>
	</g>
</g></g></g></g><style
     type="text/css"
     id="style2528">
	.linesandangles_een{fill:#111918;}
</style></svg>
