<?xml version="1.0" encoding="UTF-8" standalone="no"?>
<!-- Created with Inkscape (http://www.inkscape.org/) -->

<svg
   width="19.411987mm"
   height="19.412048mm"
   viewBox="0 0 19.411987 19.412048"
   version="1.1"
   id="svg5"
   xml:space="preserve"
   inkscape:version="1.2.2 (b0a8486541, 2022-12-01)"
   sodipodi:docname="icons.svg"
   xmlns:inkscape="http://www.inkscape.org/namespaces/inkscape"
   xmlns:sodipodi="http://sodipodi.sourceforge.net/DTD/sodipodi-0.dtd"
   xmlns="http://www.w3.org/2000/svg"
   xmlns:svg="http://www.w3.org/2000/svg"><sodipodi:namedview
     id="namedview7"
     pagecolor="#ffffff"
     bordercolor="#111111"
     borderopacity="1"
     inkscape:showpageshadow="0"
     inkscape:pageopacity="0"
     inkscape:pagecheckerboard="1"
     inkscape:deskcolor="#d1d1d1"
     inkscape:document-units="mm"
     showgrid="false"
     inkscape:zoom="1.3266288"
     inkscape:cx="1810.6044"
     inkscape:cy="789.5954"
     inkscape:window-width="3440"
     inkscape:window-height="1440"
     inkscape:window-x="0"
     inkscape:window-y="0"
     inkscape:window-maximized="1"
     inkscape:current-layer="layer1" /><defs
     id="defs2" /><g
     inkscape:label="Layer 1"
     inkscape:groupmode="layer"
     id="layer1"
     transform="translate(-560.31636,-170.0662)"><path
       d="m 574.4342,189.47824 q 2.20592,0 3.75005,-1.54416 1.54415,-1.54412 1.54415,-3.75002 h -1.32355 q 0,1.65442 -1.15811,2.81251 -1.15809,1.15811 -2.81254,1.15811 z M 560.31637,175.3604 h 1.32356 q 0,-1.65444 1.1581,-2.81253 1.15809,-1.1581 2.81254,-1.1581 v -1.32356 q -2.20592,0 -3.75005,1.54415 -1.54415,1.54412 -1.54415,3.75004 z m 2.22797,11.88986 q -2.13972,-2.13974 -2.13972,-5.13978 0,-3.00003 2.13972,-5.13977 l 3.26475,-3.28681 q 0.57355,-0.57353 1.40076,-0.57353 0.82722,0 1.40075,0.57353 0.0883,0.0662 0.19853,0.22059 l 0.2206,0.30883 2.55885,-2.55884 q 0.57354,-0.57354 1.40075,-0.57354 0.82722,0 1.40076,0.57354 0.13237,0.1544 0.23162,0.30882 0.0992,0.15441 0.14339,0.26472 0.55147,-0.55149 1.35663,-0.52943 0.80516,0.022 1.37869,0.59559 0.44119,0.44119 0.52942,1.09194 0.0883,0.65073 -0.19853,1.29045 0.17648,0.0662 0.33088,0.17647 0.15441,0.11025 0.28677,0.24265 0.57353,0.57354 0.57353,1.40076 0,0.8272 -0.57353,1.40075 l -0.55148,0.55148 q 0.15442,0.0662 0.2978,0.17648 0.14339,0.11026 0.25368,0.22059 0.57353,0.57354 0.58458,1.40074 0.0112,0.82722 -0.58458,1.40075 l -5.62506,5.60302 q -2.13974,2.13973 -5.13978,2.13973 -3.00004,0 -5.13978,-2.13973 z m 0.92649,-0.92648 q 0.88236,0.88237 1.97428,1.31252 1.09193,0.43015 2.23901,0.43015 1.14708,0 2.239,-0.43015 1.09192,-0.43015 1.97429,-1.31252 l 5.60301,-5.62507 q 0.19853,-0.19854 0.19853,-0.47427 0,-0.27573 -0.19853,-0.45222 -0.19854,-0.19853 -0.46325,-0.19853 -0.26471,0 -0.46323,0.19853 l -3.11034,3.11032 -0.94854,-0.92646 4.98536,-4.98537 q 0.19853,-0.19852 0.19853,-0.47426 0,-0.27574 -0.19853,-0.47428 -0.19854,-0.19853 -0.46325,-0.19853 -0.26471,0 -0.46323,0.19853 l -4.3677,4.36771 -0.92649,-0.92649 5.29419,-5.31624 q 0.19852,-0.19854 0.1875,-0.47426 -0.0112,-0.27575 -0.1875,-0.45221 -0.19853,-0.19853 -0.46324,-0.19853 -0.26471,0 -0.46325,0.19853 l -5.31625,5.29418 -0.92647,-0.9265 4.05887,-4.05886 q 0.19854,-0.19852 0.18751,-0.47428 -0.0111,-0.27572 -0.18751,-0.45222 -0.19853,-0.19851 -0.47427,-0.19851 -0.27574,0 -0.47427,0.19851 l -5.82361,5.82361 q 0.46325,1.14708 0.28678,2.33826 -0.17648,1.19121 -1.01472,2.11767 l -0.92649,-0.92646 q 0.70589,-0.81619 0.70589,-1.87503 0,-1.05884 -0.70589,-1.87503 l 2.6471,-2.64708 q 0.19853,-0.19854 0.18751,-0.47429 -0.0111,-0.27572 -0.18751,-0.45219 -0.19853,-0.19854 -0.46324,-0.19854 -0.26471,0 -0.46325,0.19854 l -3.2868,3.26474 q -0.88236,0.88237 -1.31252,1.97428 -0.43015,1.09193 -0.43015,2.239 0,1.14708 0.43015,2.23901 0.43016,1.09193 1.31252,1.97429 z"
       id="path2632-0-5"
       style="fill:#ffffff;fill-opacity:1;stroke-width:0.0132291"
       inkscape:export-filename="hand_signaling.svg"
       inkscape:export-xdpi="300"
       inkscape:export-ydpi="300" /></g><style
     type="text/css"
     id="style2528">
	.linesandangles_een{fill:#111918;}
</style></svg>
