<?xml version="1.0" encoding="UTF-8" standalone="no"?>
<!-- Created with Inkscape (http://www.inkscape.org/) -->

<svg
   width="19.495636mm"
   height="17.858978mm"
   viewBox="0 0 19.495636 17.858978"
   version="1.1"
   id="svg5"
   xml:space="preserve"
   inkscape:version="1.2.2 (b0a8486541, 2022-12-01)"
   sodipodi:docname="iconsv2.svg"
   xmlns:inkscape="http://www.inkscape.org/namespaces/inkscape"
   xmlns:sodipodi="http://sodipodi.sourceforge.net/DTD/sodipodi-0.dtd"
   xmlns="http://www.w3.org/2000/svg"
   xmlns:svg="http://www.w3.org/2000/svg"><sodipodi:namedview
     id="namedview7"
     pagecolor="#ffffff"
     bordercolor="#111111"
     borderopacity="1"
     inkscape:showpageshadow="0"
     inkscape:pageopacity="0"
     inkscape:pagecheckerboard="1"
     inkscape:deskcolor="#d1d1d1"
     inkscape:document-units="mm"
     showgrid="false"
     inkscape:zoom="2.6532576"
     inkscape:cx="1575.7987"
     inkscape:cy="590.78319"
     inkscape:window-width="3440"
     inkscape:window-height="1440"
     inkscape:window-x="0"
     inkscape:window-y="0"
     inkscape:window-maximized="1"
     inkscape:current-layer="layer1" /><defs
     id="defs2" /><g
     inkscape:label="Layer 1"
     inkscape:groupmode="layer"
     id="layer1"
     transform="translate(-505.49901,-124.89963)"><g
       style="fill:#ffffff;fill-opacity:1;stroke:#ffffff;stroke-width:0.840408;stroke-dasharray:none;stroke-opacity:1"
       id="g2564-6-9-2"
       transform="matrix(0.14290118,0.19173031,-0.1850065,0.14809478,634.21718,205.84114)"
       inkscape:export-filename="light_signaling.svg"
       inkscape:export-xdpi="300"
       inkscape:export-ydpi="300"><g
         data-name="Calque 2"
         id="Calque_2-7-2-2"
         style="fill:#ffffff;fill-opacity:1;stroke:#ffffff;stroke-width:0.828414;stroke-dasharray:none;stroke-opacity:1"
         transform="matrix(1.014479,0,0,1.014479,-596.04842,175.67717)"><path
           d="M 65.14,28.79 H 36 c -0.828427,0 -1.5,0.671573 -1.5,1.5 0.01295,5.601846 2.936766,10.794264 7.72,13.71 v 46.18 c 0,0.828427 0.671573,1.5 1.5,1.5 h 13.67 c 0.828427,0 1.5,-0.671573 1.5,-1.5 V 44 c 4.800805,-2.912108 7.73763,-8.115025 7.75,-13.73 -0.01094,-0.820606 -0.679321,-1.480073 -1.5,-1.48 z M 50.55,46.37 c 1.726888,-0.0024 3.442138,-0.282683 5.08,-0.83 h 0.26 v 36 H 45.22 v -36 h 0.26 c 1.634596,0.546597 3.346439,0.82684 5.07,0.83 z m -5.33,38.17 h 10.67 v 4.14 H 45.22 Z m 5.33,-41.17 c -6.644233,-0.0013 -12.233553,-4.980122 -13,-11.58 h 26 c -0.770732,6.59765 -6.357487,11.574159 -13,11.58 z"
           id="path2541-5-2-8"
           style="fill:#ffffff;fill-opacity:1;stroke:#ffffff;stroke-width:0.828414;stroke-dasharray:none;stroke-opacity:1"
           sodipodi:nodetypes="csccsssscccccccccccccccccccc" /><path
           d="m 50.55,22.29 a 1.5,1.5 0 0 0 1.5,-1.5 V 7.11 a 1.5,1.5 0 1 0 -3,0 v 13.68 a 1.5,1.5 0 0 0 1.5,1.5 z"
           id="path5567-3-8-97"
           style="fill:#ffffff;fill-opacity:1;stroke:#ffffff;stroke-width:0.828414;stroke-dasharray:none;stroke-opacity:1" /><path
           d="m 41.08,22.29 a 1.53,1.53 0 0 0 1.06,-0.44 1.51,1.51 0 0 0 0,-2.12 l -9.67,-9.67 a 1.5,1.5 0 0 0 -2.12,2.12 L 40,21.85 a 1.49,1.49 0 0 0 1.08,0.44 z"
           id="path2545-5-9-36"
           style="fill:#ffffff;fill-opacity:1;stroke:#ffffff;stroke-width:0.828414;stroke-dasharray:none;stroke-opacity:1" /><path
           d="m 60,22.29 a 1.49,1.49 0 0 0 1.06,-0.44 l 9.67,-9.67 A 1.5,1.5 0 0 0 68.61,10.06 L 59,19.73 a 1.5,1.5 0 0 0 1,2.56 z"
           id="path2547-6-7-12"
           style="fill:#ffffff;fill-opacity:1;stroke:#ffffff;stroke-width:0.828414;stroke-dasharray:none;stroke-opacity:1" /><path
           d="m 50.55,77.59 a 1.88,1.88 0 0 0 1.89,-1.89 v -7.25 a 1.89,1.89 0 0 0 -3.77,0 v 7.25 a 1.88,1.88 0 0 0 1.88,1.89 z"
           id="path2549-2-3-93"
           style="fill:#ffffff;fill-opacity:1;stroke:#ffffff;stroke-width:0.828414;stroke-dasharray:none;stroke-opacity:1" /></g></g></g><style
     type="text/css"
     id="style2528">
	.linesandangles_een{fill:#111918;}
</style></svg>
