<?xml version="1.0" encoding="UTF-8" standalone="no"?>
<!-- Created with Inkscape (http://www.inkscape.org/) -->

<svg
   width="19.180359mm"
   height="19.181015mm"
   viewBox="0 0 19.180359 19.181015"
   version="1.1"
   id="svg5"
   xml:space="preserve"
   inkscape:version="1.2.2 (b0a8486541, 2022-12-01)"
   sodipodi:docname="icons.svg"
   xmlns:inkscape="http://www.inkscape.org/namespaces/inkscape"
   xmlns:sodipodi="http://sodipodi.sourceforge.net/DTD/sodipodi-0.dtd"
   xmlns="http://www.w3.org/2000/svg"
   xmlns:svg="http://www.w3.org/2000/svg"><sodipodi:namedview
     id="namedview7"
     pagecolor="#ffffff"
     bordercolor="#111111"
     borderopacity="1"
     inkscape:showpageshadow="0"
     inkscape:pageopacity="0"
     inkscape:pagecheckerboard="1"
     inkscape:deskcolor="#d1d1d1"
     inkscape:document-units="mm"
     showgrid="false"
     inkscape:zoom="1.3266288"
     inkscape:cx="1810.6044"
     inkscape:cy="789.5954"
     inkscape:window-width="3440"
     inkscape:window-height="1440"
     inkscape:window-x="0"
     inkscape:window-y="0"
     inkscape:window-maximized="1"
     inkscape:current-layer="layer1" /><defs
     id="defs2" /><g
     inkscape:label="Layer 1"
     inkscape:groupmode="layer"
     id="layer1"
     transform="translate(-506.58711,-169.62116)"><g
       style="fill:#ffffff;stroke-width:10.3596;stroke-dasharray:none"
       id="g2526-4-3"
       transform="matrix(0.62888584,0,0,0.62888584,506.11543,169.14949)"
       inkscape:export-filename="lint_marker.svg"
       inkscape:export-xdpi="300"
       inkscape:export-ydpi="300"><path
         d="M 30.885,1.116 C 30.658,0.89 30.345,0.75 29.999,0.75 29.822,0.75 29.653,0.787 29.5,0.853 l 0.008,-0.003 -28,12 c -0.449,0.196 -0.758,0.637 -0.758,1.149 0,0.628 0.463,1.148 1.067,1.237 l 0.007,10e-4 13.072,1.867 1.867,13.073 c 0.081,0.554 0.517,0.986 1.067,1.06 l 0.006,0.001 c 0.049,0.007 0.106,0.012 0.164,0.012 v 0 c 0.512,0 0.953,-0.309 1.145,-0.75 l 0.003,-0.008 12,-28 c 0.064,-0.145 0.101,-0.315 0.101,-0.493 0,-0.345 -0.14,-0.657 -0.365,-0.883 v 0 z M 18.607,25.41 17.237,15.823 c -0.081,-0.55 -0.51,-0.98 -1.054,-1.06 L 16.176,14.762 6.589,13.392 27.618,4.379 Z"
         id="path2517-7-2"
         style="fill:#ffffff;stroke-width:10.3596;stroke-dasharray:none" /></g></g><style
     type="text/css"
     id="style2528">
	.linesandangles_een{fill:#111918;}
</style></svg>
