<?xml version="1.0" encoding="UTF-8" standalone="no"?>
<!-- Created with Inkscape (http://www.inkscape.org/) -->

<svg
   width="19.661438mm"
   height="18.611084mm"
   viewBox="0 0 19.661438 18.611084"
   version="1.1"
   id="svg5"
   xml:space="preserve"
   inkscape:version="1.2.2 (b0a8486541, 2022-12-01)"
   sodipodi:docname="iconsv2.svg"
   xmlns:inkscape="http://www.inkscape.org/namespaces/inkscape"
   xmlns:sodipodi="http://sodipodi.sourceforge.net/DTD/sodipodi-0.dtd"
   xmlns="http://www.w3.org/2000/svg"
   xmlns:svg="http://www.w3.org/2000/svg"><sodipodi:namedview
     id="namedview7"
     pagecolor="#ffffff"
     bordercolor="#111111"
     borderopacity="1"
     inkscape:showpageshadow="0"
     inkscape:pageopacity="0"
     inkscape:pagecheckerboard="1"
     inkscape:deskcolor="#d1d1d1"
     inkscape:document-units="mm"
     showgrid="false"
     inkscape:zoom="7.5045458"
     inkscape:cx="2802.9678"
     inkscape:cy="1052.2289"
     inkscape:window-width="3440"
     inkscape:window-height="1440"
     inkscape:window-x="0"
     inkscape:window-y="0"
     inkscape:window-maximized="1"
     inkscape:current-layer="layer1" /><defs
     id="defs2" /><g
     inkscape:label="Layer 1"
     inkscape:groupmode="layer"
     id="layer1"
     transform="translate(-746.34945,-263.48878)"><g
       id="g1447"
       transform="matrix(0.80549412,0,0,0.80451417,136.4391,35.634734)"
       style="stroke-width:1.36645;stroke-dasharray:none"
       inkscape:export-filename="remote.svg"
       inkscape:export-xdpi="300"
       inkscape:export-ydpi="300"><ellipse
         style="font-variation-settings:normal;fill:none;fill-opacity:1;fill-rule:evenodd;stroke:#ffffff;stroke-width:1.36645;stroke-linecap:butt;stroke-linejoin:miter;stroke-miterlimit:4;stroke-dasharray:none;stroke-dashoffset:0;stroke-opacity:1;stop-color:#000000"
         id="path17370-8-8"
         cx="762.93073"
         cy="302.94528"
         rx="5.0596428"
         ry="2.724256" /><ellipse
         style="font-variation-settings:normal;fill:none;fill-opacity:1;fill-rule:evenodd;stroke:#ffffff;stroke-width:1.36645;stroke-linecap:butt;stroke-linejoin:miter;stroke-miterlimit:4;stroke-dasharray:none;stroke-dashoffset:0;stroke-opacity:1;stop-color:#000000"
         id="path17370-8-8-6"
         cx="775.85419"
         cy="302.87552"
         rx="5.0596428"
         ry="2.724256" /><g
         id="g17368-5-6"
         transform="translate(92.790844,10.027661)"
         style="stroke-width:1.36645;stroke-dasharray:none"><path
           d="m 671.91578,279.52142 c -0.46694,-0.52272 -1.13492,-0.84093 -1.83533,-0.84093 -0.003,0 -0.0173,0 -0.0208,0 -0.70084,0 -1.36796,0.31821 -1.8349,0.84093 -0.46737,0.52271 -0.6896,1.22874 -0.61048,1.92526 l 1.1293,9.99728 c 0.0783,0.68917 0.63988,1.25641 1.32603,1.25641 0.68528,0 1.24863,-0.56422 1.32559,-1.25209 l 1.12974,-10.00203 c 0.08,-0.69652 -0.14182,-1.40212 -0.60919,-1.92483 z"
           id="path20642-8-8-9-4"
           style="fill:#ffffff;stroke-width:1.36645;stroke-dasharray:none" /><circle
           cx="670.07013"
           cy="275.63544"
           r="2.4237657"
           id="circle20644-79-5-7-3"
           style="fill:#ffffff;stroke-width:1.36645;stroke-dasharray:none" /></g><g
         id="g17368-7-5-3"
         transform="translate(105.56638,10.00776)"
         style="stroke-width:1.36645;stroke-dasharray:none"><path
           d="m 671.91578,279.52142 c -0.46694,-0.52272 -1.13492,-0.84093 -1.83533,-0.84093 -0.003,0 -0.0173,0 -0.0208,0 -0.70084,0 -1.36796,0.31821 -1.8349,0.84093 -0.46737,0.52271 -0.6896,1.22874 -0.61048,1.92526 l 1.1293,9.99728 c 0.0783,0.68917 0.63988,1.25641 1.32603,1.25641 0.68528,0 1.24863,-0.56422 1.32559,-1.25209 l 1.12974,-10.00203 c 0.08,-0.69652 -0.14182,-1.40212 -0.60919,-1.92483 z"
           id="path20642-8-8-4-3-3"
           style="fill:#ffffff;stroke-width:1.36645;stroke-dasharray:none" /><circle
           cx="670.07013"
           cy="275.63544"
           r="2.4237657"
           id="circle20644-79-5-1-8-8"
           style="fill:#ffffff;stroke-width:1.36645;stroke-dasharray:none" /></g></g></g><style
     type="text/css"
     id="style2528">
	.linesandangles_een{fill:#111918;}
</style></svg>
