<?xml version="1.0" encoding="UTF-8" standalone="no"?>
<!-- Created with Inkscape (http://www.inkscape.org/) -->

<svg
   width="17.034912mm"
   height="19.480804mm"
   viewBox="0 0 17.034912 19.480804"
   version="1.1"
   id="svg5"
   xml:space="preserve"
   inkscape:version="1.2.2 (b0a8486541, 2022-12-01)"
   sodipodi:docname="iconsv2.svg"
   xmlns:inkscape="http://www.inkscape.org/namespaces/inkscape"
   xmlns:sodipodi="http://sodipodi.sourceforge.net/DTD/sodipodi-0.dtd"
   xmlns="http://www.w3.org/2000/svg"
   xmlns:svg="http://www.w3.org/2000/svg"
   xmlns:rdf="http://www.w3.org/1999/02/22-rdf-syntax-ns#"
   xmlns:cc="http://creativecommons.org/ns#"
   xmlns:dc="http://purl.org/dc/elements/1.1/"><metadata
     id="metadata293"><rdf:RDF><cc:Work
         rdf:about=""><dc:format>image/svg+xml</dc:format><dc:type
           rdf:resource="http://purl.org/dc/dcmitype/StillImage" /><dc:title /></cc:Work></rdf:RDF></metadata><sodipodi:namedview
     id="namedview7"
     pagecolor="#ffffff"
     bordercolor="#111111"
     borderopacity="1"
     inkscape:showpageshadow="0"
     inkscape:pageopacity="0"
     inkscape:pagecheckerboard="1"
     inkscape:deskcolor="#d1d1d1"
     inkscape:document-units="mm"
     showgrid="false"
     inkscape:zoom="1.8761365"
     inkscape:cx="2735.1422"
     inkscape:cy="935.69953"
     inkscape:window-width="3440"
     inkscape:window-height="1440"
     inkscape:window-x="0"
     inkscape:window-y="0"
     inkscape:window-maximized="0"
     inkscape:current-layer="g1309" /><defs
     id="defs2" /><g
     inkscape:label="Layer 1"
     inkscape:groupmode="layer"
     id="layer1"
     transform="translate(-744.67751,-236.01537)"><g
       id="g1309"
       transform="matrix(0.8044875,0,0,0.8044875,691.87187,253.52914)"
       style="stroke:none;stroke-opacity:1"><path
         id="path1295"
         d="m 77.703496,-18.422861 -0.99138,-0.786735 2.108963,-1.672506 0.99138,0.786734 z M 74.1937,-21.7701 h -1.402237 v 3.152503 H 74.1937 Z m -4.010397,2.559392 -2.107559,-1.670281 -0.991381,0.786734 2.10756,1.672507 z m 16.595466,12.004659 a 1.9883708,1.5779205 0 0 0 -2.055678,-1.656927 6.2750067,4.9796857 0 0 0 -0.97175,0.07121 l -0.0589,-0.0178 a 1.9463037,1.5445371 0 0 0 -1.817299,-0.86908 2.5071981,1.9896487 0 0 0 -0.823113,0.07121 2.5801146,2.0475133 0 0 0 -2.651629,-1.11723 3.8813895,3.080172 0 0 0 -1.402236,0.185834 v -4.814984 a 2.6712599,2.1198439 0 0 0 -2.804468,-2.05419 2.6712599,2.1198439 0 0 0 -2.804472,2.05419 v 7.738264 l -1.431683,-1.350913 a 2.2772314,1.8071529 0 0 0 -1.494784,-0.815667 2.4889691,1.9751826 0 0 0 -1.772427,0.179157 2.0725049,1.6446872 0 0 0 -0.995589,1.07717 2.2267509,1.7670929 0 0 0 0.234174,1.26523 l 3.020417,4.873972 4.655424,4.522334 1.083928,-0.706615 -4.516601,-4.363206 -3.006394,-4.850603 a 0.86798416,0.68881015 0 0 1 -0.103761,-0.4963 0.68008453,0.53969778 0 0 1 0.329525,-0.358315 1.11618,0.88577202 0 0 1 0.761413,-0.05675 0.99278318,0.78784748 0 0 1 0.659052,0.364991 l 3.979547,3.771208 v -10.793957 a 1.2732305,1.0104033 0 0 1 1.402236,-0.941412 1.2732305,1.0104033 0 0 1 1.402236,0.941412 v 7.900731 h 1.402236 v -1.534522 c 0,-0.415068 0.471151,-0.625382 1.402236,-0.625382 0.524437,0 1.402236,0.08123 1.402236,0.625382 v 1.534522 h 1.402236 V -8.07958 c 0,-0.4006 0.155649,-0.523007 0.670269,-0.523007 0.710933,0 0.731967,0.761142 0.731967,0.847938 v 1.182885 h 1.402237 v -1.148388 l -0.0071,0.0022 0.0071,-0.0089 v 0.0067 c 0.01543,-0.0056 0.507609,-0.03005 0.712336,-0.03005 0.180888,0 0.6899,0.173594 0.6899,0.846825 0.03086,0.272631 0,3.329435 0,4.554604 A 11.025783,8.7497806 0 0 1 84.762354,0.60788104 C 84.537998,1.076361 83.977102,1.966584 83.977102,1.966584 l 1.287252,0.478495 c 0,0 0.381409,-0.674344 0.558091,-1.02932 A 10.264369,8.1455417 0 0 0 86.482902,-0.33130394 36.511425,28.974538 0 0 0 86.81383,-4.036858 Z"
         inkscape:connector-curvature="0"
         style="fill:#ffffff;stroke:none;stroke-width:1.13914;stroke-opacity:1"
         inkscape:export-xdpi="300"
         inkscape:export-ydpi="300" /></g></g><style
     type="text/css"
     id="style2528">
	.linesandangles_een{fill:#111918;}
</style></svg>
